# xmcd CD database file
#
# Track frame offsets:
#	150
#	3941
#	26179
#	45725
#	66350
#	88495
#	109670
#	141296
#	157832
#	173697
#	198500
#
# Disc length: 2929 seconds
#
# Revision: 8
# Processed by: cddbd v1.5.1PL2 Copyright (c) Steve Scherf et al.
# Submitted via: CDex 1.51
#
DISCID=930b6f0b
DTITLE=TM NETWORK - CHILDHOOD'S END
DYEAR=1985
DGENRE=Rock
TTITLE0=CHILDHOOD'S END
TTITLE1=ACCIDENT
TTITLE2=FAIRE LA VISE
TTITLE3=永遠のパスポート
TTITLE4=8月の長い夜
TTITLE5=TIME
TTITLE6=DRAGON THE FESTIVAL
TTITLE7=さよならの準備
TTITLE8=INNOCENT BOY
TTITLE9=FANTASTIC VISION
TTITLE10=愛をそのままに
EXTD=YEAR: 1985
EXTT0=
EXTT1=
EXTT2=
EXTT3=
EXTT4=
EXTT5=
EXTT6=
EXTT7=
EXTT8=
EXTT9=
EXTT10=
PLAYORDER=
